<svg xmlns="http://www.w3.org/2000/svg" xmlns:xlink="http://www.w3.org/1999/xlink" version="1.1" id="Layer_1" x="0px" y="0px" width="50px" height="50px" viewBox="0 0 50 50" enable-background="new 0 0 50 50" xml:space="preserve">
<g>
	<path fill="#000000" d="M0.566,45.994h13.387v-22.32H0.566V45.994z M9.682,43.719c0-0.803,0.646-1.451,1.449-1.451   c0.802,0,1.45,0.648,1.45,1.451c0,0.81-0.647,1.457-1.45,1.457C10.328,45.176,9.682,44.528,9.682,43.719z"/>
	<path fill="#000000" d="M44.874,19.853c-4.042-0.875-13.906,0.729-13.906,0.729c2.703-7.385,2.782-12.128,2.154-13.19   c-0.334-2.544-6.258-8.113-6.788,2.288c-0.689,3.167-1.489,6.719-3.167,9.125c-3.371,4.545-7.023,6.476-7.023,6.476   s0.07,11.424,0,17.95c2.603,0.19,4.09,1.108,5.315,1.46c8.59,4.099,21.621-0.484,21.621-0.484c4.359-0.688,2.818-4.563,2.407-5.442   c0.052-0.048,0.097-0.095,0.122-0.141c0.043-0.079,0.037-0.125-0.002-0.148c3.255-1.546,2.828-4.976,1.219-6.237   c0.022-0.05,0.023-0.087-0.004-0.109c2.806-1.438,2.199-5.588,0.584-6.162C49.263,25.752,51.801,20.991,44.874,19.853z    M30.968,6.827c0,0.061-0.005,0.118-0.014,0.181l-0.243,1.377c-0.118,0.677-0.763,1.124-1.433,1.006l-1.07-0.193   c-0.673-0.123-1.119-0.767-1-1.435l0.244-1.381c0.018-0.095,0.043-0.185,0.083-0.267c0.214-0.521,0.768-0.84,1.349-0.736   l1.076,0.193C30.567,5.681,30.987,6.224,30.968,6.827z"/>
</g>
</svg>