<svg xmlns="http://www.w3.org/2000/svg" xmlns:xlink="http://www.w3.org/1999/xlink" version="1.1" id="Layer_1" x="0px" y="0px" width="50px" height="50px" viewBox="0 0 50 50" enable-background="new 0 0 50 50" xml:space="preserve">
<g>
	<path fill="#000000" d="M0.566,26.326h13.387V4.006H0.566V26.326z M11.131,4.825c0.802,0,1.45,0.647,1.45,1.457   c0,0.802-0.648,1.451-1.45,1.451c-0.803,0-1.449-0.649-1.449-1.451C9.682,5.472,10.328,4.825,11.131,4.825z"/>
	<path fill="#000000" d="M47.406,24.035c1.615-0.574,2.221-4.725-0.584-6.162c0.026-0.022,0.025-0.06,0.004-0.109   c1.609-1.262,2.035-4.692-1.219-6.238c0.039-0.023,0.045-0.069,0.001-0.148c-0.024-0.046-0.069-0.093-0.122-0.141   c0.411-0.88,1.953-4.754-2.406-5.442c0,0-13.031-4.583-21.622-0.484c-1.225,0.351-2.712,1.27-5.315,1.459   c0.07,6.526,0,17.95,0,17.95s3.652,1.931,7.023,6.477c1.679,2.405,2.479,5.957,3.167,9.124c0.531,10.401,6.455,4.832,6.789,2.288   c0.627-1.063,0.549-5.806-2.154-13.19c0,0,9.863,1.604,13.906,0.729C51.801,29.009,49.264,24.248,47.406,24.035z M29.96,44.428   l-1.075,0.193c-0.582,0.104-1.136-0.215-1.35-0.736c-0.041-0.082-0.064-0.172-0.083-0.268l-0.243-1.381   c-0.12-0.668,0.326-1.313,0.999-1.435l1.071-0.192c0.67-0.117,1.314,0.329,1.432,1.006l0.244,1.377   c0.008,0.063,0.014,0.12,0.014,0.181C30.988,43.775,30.568,44.318,29.96,44.428z"/>
</g>
</svg>